<svg width="36.000000" height="36.000000" viewBox="0 0 36 36" fill="none" xmlns="http://www.w3.org/2000/svg" xmlns:xlink="http://www.w3.org/1999/xlink">
	<desc>
			Created with Pixso.
	</desc>
	<defs/>
	<path id="Icon awesome-twitter-square" d="M32.14 0L3.86 0C2.83 0 1.85 0.4 1.13 1.13C0.4 1.85 0 2.83 0 3.86L0 32.14C0 33.16 0.4 34.14 1.13 34.86C1.85 35.59 2.83 36 3.86 36L32.14 36C33.16 36 34.14 35.59 34.86 34.86C35.59 34.14 36 33.16 36 32.14L36 3.86C36 2.83 35.59 1.85 34.86 1.13C34.14 0.4 33.16 0 32.14 0L32.14 0ZM28.21 12.76L28.21 13.44C28.22 15.39 27.85 17.33 27.11 19.14C26.38 20.96 25.29 22.61 23.92 24C22.54 25.39 20.91 26.5 19.11 27.26C17.31 28.02 15.37 28.42 13.42 28.44C13.35 28.45 13.27 28.45 13.21 28.44C10.34 28.44 7.53 27.62 5.12 26.08C5.54 26.12 5.96 26.15 6.39 26.15C8.78 26.16 11.11 25.36 13 23.89C11.88 23.88 10.8 23.53 9.9 22.87C9 22.21 8.34 21.28 8 20.23C8.78 20.36 9.59 20.33 10.37 20.12C9.19 19.88 8.13 19.23 7.37 18.3C6.61 17.37 6.19 16.2 6.19 15L6.19 14.93C6.91 15.34 7.72 15.57 8.56 15.6C7.83 15.11 7.24 14.46 6.84 13.69C6.43 12.93 6.21 12.07 6.22 11.21C6.21 10.27 6.45 9.35 6.92 8.55C8.26 10.16 9.91 11.48 11.78 12.42C13.66 13.36 15.7 13.9 17.79 14C17.53 12.86 17.64 11.67 18.12 10.61C18.6 9.55 19.42 8.68 20.45 8.13C21.47 7.58 22.65 7.39 23.8 7.58C24.95 7.77 26 8.33 26.8 9.18C27.96 8.98 29.09 8.58 30.13 8C29.73 9.21 28.91 10.24 27.82 10.9C28.85 10.77 29.86 10.49 30.82 10.08C30.1 11.11 29.22 12.02 28.21 12.76Z" fill="#FFFFFF" fill-opacity="1.000000" fill-rule="nonzero"/>
</svg>
