<svg width="190.000000" height="233.000000" viewBox="0 0 190 233" fill="none" xmlns="http://www.w3.org/2000/svg" xmlns:xlink="http://www.w3.org/1999/xlink">
	<desc>
			Created with Pixso.
	</desc>
	<defs/>
	<path id="icon-footer__newsletter" d="M135.87 146.44C133.49 145.26 130.76 145.03 128.22 145.79C125.68 146.55 123.52 148.24 122.18 150.53C121.21 152.23 120.17 153.86 119.08 155.44C117.24 158.28 115.26 161.02 113.15 163.66C109.14 168.58 103.34 171.7 97.03 172.35C90.72 172.99 84.41 171.11 79.49 167.1C78.24 166.06 77.08 164.91 76.05 163.66C73.98 161.08 72 158.37 70.11 155.57C60.44 140.67 53.75 124.04 50.4 106.59C48.47 97.03 47.25 87.33 46.74 77.59C46.41 71.33 48.32 65.16 52.12 60.18C55.92 55.2 61.36 51.73 67.48 50.39L67.79 50.39C76.66 48.52 85.64 47.26 94.68 46.6C103.71 47.25 112.68 48.5 121.54 50.35L121.8 50.35C127.92 51.69 133.36 55.17 137.15 60.16C140.94 65.15 142.84 71.33 142.5 77.59C142.5 79.48 142.5 81.42 142.11 83.44C141.98 84.82 142.12 86.2 142.53 87.52C142.95 88.84 143.62 90.06 144.5 91.12C145.39 92.18 146.49 93.05 147.71 93.68C148.94 94.31 150.28 94.69 151.66 94.8L177.14 96.82C178.51 96.94 179.89 96.79 181.19 96.37C182.5 95.95 183.72 95.28 184.76 94.39C185.81 93.51 186.67 92.42 187.3 91.2C187.93 89.97 188.31 88.64 188.41 87.27C189.64 72.27 189.52 57.19 188.07 42.21C187.73 38.71 186.7 35.3 185.02 32.2C183.34 29.11 181.06 26.38 178.3 24.18C154.37 5.33 110.74 1.11 98.13 0.12C95.79 -0.05 93.45 -0.05 91.11 0.12C78.5 1.11 34.86 5.33 10.94 24.18C8.18 26.38 5.9 29.11 4.21 32.21C2.53 35.3 1.48 38.71 1.12 42.21C-1.97 73.97 -4.9 178.08 82.89 229.29C86.52 231.4 90.64 232.51 94.83 232.51C99.03 232.51 103.15 231.4 106.78 229.29C130.25 215.64 149.72 196.07 163.24 172.52C163.94 171.34 164.39 170.03 164.58 168.66C164.77 167.3 164.69 165.91 164.34 164.58C163.99 163.25 163.39 162 162.55 160.9C161.72 159.81 160.68 158.89 159.49 158.19L158.85 157.85L135.87 146.44Z" fill="#FDB235" fill-opacity="1.000000" fill-rule="nonzero"/>
</svg>
