<svg width="20" height="14" viewBox="0 0 20 14" fill="none" xmlns="http://www.w3.org/2000/svg" xmlns:xlink="http://www.w3.org/1999/xlink">
	<desc>
			Created with Pixso.
	</desc>
	<defs/>
	<path id="Icon ionic-ios-arrow-round-forward" d="M12.86 0.24C12.69 0.42 12.6 0.65 12.6 0.89C12.6 1.13 12.69 1.36 12.86 1.53L17.11 5.81L1.01 5.81C0.88 5.8 0.75 5.81 0.63 5.85C0.51 5.89 0.4 5.96 0.3 6.04C0.2 6.13 0.13 6.24 0.07 6.35C0.02 6.47 0 6.6 0 6.73C0 6.86 0.02 6.98 0.07 7.1C0.13 7.22 0.2 7.33 0.3 7.41C0.4 7.5 0.51 7.56 0.63 7.6C0.75 7.64 0.88 7.66 1.01 7.64L17.11 7.64L12.85 11.98C12.68 12.16 12.59 12.39 12.59 12.63C12.59 12.87 12.68 13.1 12.85 13.27C12.93 13.36 13.03 13.42 13.14 13.47C13.25 13.51 13.36 13.53 13.48 13.53C13.6 13.53 13.71 13.51 13.82 13.47C13.93 13.42 14.03 13.36 14.11 13.27L19.85 7.38C19.93 7.3 19.99 7.2 20.04 7.09C20.09 6.98 20.11 6.86 20.11 6.74C20.11 6.62 20.09 6.51 20.04 6.4C20 6.29 19.93 6.19 19.85 6.1L14.11 0.26C13.95 0.1 13.74 0.01 13.51 0C13.28 -0.01 13.06 0.06 12.89 0.21L12.86 0.24Z" fill="#000000" fill-opacity="1.000000" fill-rule="nonzero"/>
</svg>
