<svg width="36.000000" height="36.000000" viewBox="0 0 36 36" fill="none" xmlns="http://www.w3.org/2000/svg" xmlns:xlink="http://www.w3.org/1999/xlink">
	<desc>
			Created with Pixso.
	</desc>
	<defs/>
	<path id="Exclusion 8" d="M32.14 36L3.85 36C2.83 36 1.85 35.59 1.13 34.86C0.4 34.14 0 33.16 0 32.14L0 3.86C0 2.83 0.4 1.85 1.13 1.13C1.85 0.4 2.83 0 3.85 0L32.14 0C33.16 0 34.14 0.4 34.86 1.13C35.59 1.85 36 2.83 36 3.86L36 32.14C36 33.16 35.59 34.14 34.86 34.86C34.14 35.59 33.16 36 32.14 36ZM17.64 9.14C17.56 9.14 10.16 9.14 8.32 9.64C7.81 9.77 7.35 10.04 6.98 10.41C6.61 10.79 6.34 11.25 6.2 11.76C5.86 13.66 5.7 15.6 5.7 17.54C5.7 19.47 5.86 21.41 6.2 23.32C6.35 23.82 6.61 24.27 6.98 24.64C7.35 25.01 7.81 25.27 8.32 25.41C10.16 25.91 17.56 25.91 17.64 25.91C17.71 25.91 25.12 25.91 26.95 25.41C27.45 25.28 27.91 25.01 28.28 24.65C28.65 24.28 28.92 23.82 29.06 23.32C29.4 21.41 29.57 19.47 29.56 17.54C29.57 15.6 29.4 13.67 29.06 11.77C28.93 11.26 28.67 10.8 28.31 10.43C27.95 10.05 27.49 9.78 27 9.64C25.12 9.14 17.7 9.14 17.64 9.14ZM15.2 21.14L15.2 14L21.43 17.54L15.2 21.09L15.2 21.14Z" fill="#FFFFFF" fill-opacity="1.000000" fill-rule="nonzero"/>
</svg>
