<svg width="16.092712" height="10.831451" viewBox="0 0 16.0927 10.8315" fill="none" xmlns="http://www.w3.org/2000/svg" xmlns:xlink="http://www.w3.org/1999/xlink">
	<desc>
			Created with Pixso.
	</desc>
	<defs/>
	<path id="icon-arrow__sect-6" d="M10.29 0.19C10.15 0.33 10.08 0.52 10.08 0.71C10.08 0.9 10.15 1.09 10.29 1.23L13.69 4.65L0.81 4.65C0.71 4.64 0.6 4.65 0.5 4.68C0.41 4.71 0.32 4.77 0.24 4.83C0.16 4.9 0.1 4.99 0.06 5.08C0.02 5.18 0 5.28 0 5.38C0 5.48 0.02 5.59 0.06 5.68C0.1 5.77 0.16 5.86 0.24 5.93C0.32 6 0.41 6.05 0.5 6.08C0.6 6.11 0.71 6.12 0.81 6.11L13.69 6.11L10.28 9.59C10.15 9.72 10.07 9.91 10.07 10.1C10.07 10.29 10.15 10.48 10.28 10.62C10.35 10.68 10.42 10.74 10.51 10.77C10.6 10.81 10.69 10.83 10.78 10.83C10.88 10.83 10.97 10.81 11.06 10.77C11.14 10.74 11.22 10.68 11.29 10.62L15.88 5.91C15.94 5.84 15.99 5.76 16.03 5.67C16.07 5.59 16.09 5.49 16.09 5.39C16.09 5.3 16.07 5.2 16.03 5.12C16 5.03 15.95 4.95 15.88 4.88L11.29 0.21C11.16 0.08 10.99 0 10.81 0C10.63 -0.01 10.45 0.05 10.31 0.17L10.29 0.19Z" fill="#FFFFFF" fill-opacity="1.000000" fill-rule="nonzero"/>
</svg>
