<svg width="36.000000" height="36.000122" viewBox="0 0 36 36.0001" fill="none" xmlns="http://www.w3.org/2000/svg" xmlns:xlink="http://www.w3.org/1999/xlink">
	<desc>
			Created with Pixso.
	</desc>
	<defs/>
	<path id="Icon awesome-facebook-square" d="M32.14 0L3.85 0C2.83 0 1.85 0.4 1.13 1.13C0.4 1.85 0 2.83 0 3.86L0 32.14C0 33.16 0.4 34.14 1.13 34.86C1.85 35.59 2.83 36 3.85 36L14.86 36L14.86 23.76L9.82 23.76L9.82 18L14.89 18L14.89 13.61C14.89 8.6 17.89 5.86 22.41 5.86C23.9 5.87 25.4 6.01 26.88 6.25L26.88 11.15L24.36 11.15C21.89 11.15 21.11 12.68 21.11 14.26L21.11 18L26.64 18L25.76 23.76L21.11 23.76L21.11 36L32.11 36C32.61 36 33.12 35.9 33.59 35.71C34.06 35.52 34.49 35.23 34.85 34.88C35.22 34.52 35.5 34.09 35.7 33.62C35.89 33.15 36 32.64 36 32.14L36 3.86C36 2.83 35.59 1.85 34.86 1.13C34.14 0.4 33.16 0 32.14 0L32.14 0Z" fill="#FFFFFF" fill-opacity="1.000000" fill-rule="nonzero"/>
</svg>
